<svg aria-hidden="true" style="position: absolute; width: 0; height: 0; overflow: hidden;" version="1.1" xmlns="http://www.w3.org/2000/svg" xmlns:xlink="http://www.w3.org/1999/xlink">
<defs>
<symbol id="icon-fb" viewBox="0 0 19 32">
<path fill="#ef7c00" style="fill: var(--color1, #ef7c00)" d="M18.667 2.144c0-0.221-0.088-0.434-0.245-0.59s-0.37-0.244-0.592-0.244h-4.186c-2.108-0.105-4.171 0.627-5.74 2.034s-2.515 3.376-2.632 5.476v4.506h-4.186c-0.222 0-0.435 0.088-0.592 0.244s-0.245 0.369-0.245 0.59v4.339c0 0.221 0.088 0.434 0.245 0.59s0.37 0.244 0.592 0.244h4.186v11.181c0 0.221 0.088 0.434 0.245 0.59s0.37 0.244 0.592 0.244h5.023c0.222 0 0.435-0.088 0.592-0.244s0.245-0.369 0.245-0.59v-11.181h4.387c0.186 0.003 0.368-0.057 0.516-0.169s0.256-0.27 0.304-0.449l1.205-4.339c0.033-0.123 0.038-0.253 0.013-0.378s-0.078-0.243-0.156-0.345-0.178-0.184-0.292-0.241c-0.115-0.057-0.241-0.087-0.369-0.088h-5.609v-4.506c0.042-0.413 0.236-0.796 0.546-1.074s0.712-0.43 1.128-0.428h4.186c0.222 0 0.435-0.088 0.592-0.244s0.245-0.369 0.245-0.59v-4.339z"></path>
</symbol>
<symbol id="icon-linkedin" viewBox="0 0 32 32">
<path fill="#ef7c00" style="fill: var(--color1, #ef7c00)" d="M7.109 3.556c0 1.888-1.262 3.513-3.557 3.513-2.16 0-3.554-1.532-3.554-3.42 0-1.938 1.351-3.648 3.556-3.648s3.513 1.618 3.556 3.556zM-0.002 32v-23.111h7.111v23.111h-7.111z"></path>
<path fill="#ef7c00" style="fill: var(--color1, #ef7c00)" d="M10.665 16.789c0-2.747-0.091-5.042-0.181-7.024h6.389l0.316 3.063h0.135c0.9-1.442 3.104-3.556 6.795-3.556 4.501 0 7.879 3.013 7.879 9.497v13.23h-7.111v-12.197c0-2.834-1.079-4.996-3.555-4.996-1.888 0-2.834 1.529-3.33 2.789-0.181 0.452-0.226 1.081-0.226 1.712v12.692h-7.111v-15.211z"></path>
</symbol>
<symbol id="icon-vk" viewBox="0 0 53 32">
<path fill="#ef7c00" style="fill: var(--color1, #ef7c00)" d="M49.789 2.157c0.356-1.244 0-2.157-1.683-2.157h-5.577c-1.419 0-2.068 0.789-2.424 1.656 0 0-2.836 7.276-6.854 11.994-1.297 1.373-1.89 1.806-2.597 1.806-0.354 0-0.867-0.434-0.867-1.678v-11.622c0-1.493-0.409-2.157-1.592-2.157h-8.764c-0.885 0-1.419 0.69-1.419 1.349 0 1.413 2.009 1.739 2.215 5.721v8.638c0 1.892-0.323 2.237-1.035 2.237-1.89 0-6.488-7.303-9.216-15.663-0.532-1.624-1.068-2.28-2.492-2.28h-5.574c-1.595 0-1.912 0.789-1.912 1.656 0 1.557 1.89 9.264 8.802 19.457 4.608 6.96 11.096 10.733 17.006 10.733 3.543 0 3.98-0.837 3.98-2.282v-5.261c0-1.675 0.338-2.012 1.46-2.012 0.824 0 2.243 0.439 5.552 3.792 3.779 3.977 4.405 5.762 6.528 5.762h5.574c1.592 0 2.388-0.838 1.93-2.491-0.501-1.646-2.307-4.041-4.702-6.875-1.302-1.616-3.248-3.356-3.84-4.225-0.827-1.121-0.587-1.616 0-2.612 0.002 0.003 6.795-10.065 7.502-13.487z"></path>
</symbol>

<symbol id="icon-arrow-left" viewBox="0 0 17 32">
<path fill="#bfc1c7" style="fill: var(--color1, #bfc1c7)" d="M16.564 31.537c0.242-0.246 0.377-0.575 0.377-0.918s-0.135-0.673-0.377-0.918l-13.507-13.744 13.507-13.741c0.242-0.246 0.377-0.575 0.377-0.918s-0.135-0.673-0.377-0.918c-0.118-0.12-0.258-0.215-0.413-0.28s-0.322-0.098-0.49-0.098c-0.168 0-0.335 0.033-0.49 0.098s-0.296 0.16-0.413 0.28l-14.363 14.618c-0.252 0.257-0.393 0.601-0.393 0.96s0.141 0.703 0.393 0.96l14.363 14.618c0.118 0.12 0.258 0.215 0.413 0.28s0.322 0.098 0.49 0.098c0.168 0 0.335-0.034 0.49-0.098s0.296-0.16 0.413-0.28v0.003z"></path>
</symbol>
<symbol id="icon-arrow-right" viewBox="0 0 17 32">
<path fill="#bfc1c7" style="fill: var(--color1, #bfc1c7)" d="M0.377 0.376c-0.242 0.245-0.377 0.575-0.377 0.918s0.135 0.673 0.377 0.918l13.507 13.744-13.507 13.741c-0.242 0.246-0.377 0.575-0.377 0.918s0.135 0.673 0.377 0.918c0.117 0.12 0.258 0.215 0.413 0.28s0.322 0.098 0.49 0.098 0.335-0.034 0.49-0.098c0.155-0.065 0.296-0.16 0.413-0.28l14.363-14.618c0.252-0.257 0.393-0.601 0.393-0.96s-0.141-0.703-0.393-0.96l-14.363-14.618c-0.118-0.12-0.258-0.215-0.413-0.28s-0.322-0.098-0.49-0.098c-0.168 0-0.335 0.033-0.49 0.098s-0.296 0.16-0.413 0.28v-0.003z"></path>
</symbol>
</defs>
</svg>